<svg width="61" height="62" xmlns="http://www.w3.org/2000/svg" xmlns:xlink="http://www.w3.org/1999/xlink" xml:space="preserve" overflow="hidden"><defs><clipPath id="clip0"><rect x="430" y="248" width="61" height="62"/></clipPath></defs><g clip-path="url(#clip0)" transform="translate(-430 -248)"><path d="M29.8009 0C13.3218 0 0 13.42 0 30.0224 0 43.2935 8.53573 54.5273 20.3771 58.5033 21.8575 58.8022 22.3998 57.8573 22.3998 57.0625 22.3998 56.3664 22.351 53.9807 22.351 51.495 14.0611 53.2847 12.3348 47.9161 12.3348 47.9161 11.0026 44.4367 9.02861 43.5424 9.02861 43.5424 6.31533 41.7033 9.22625 41.7033 9.22625 41.7033 12.236 41.9021 13.8153 44.785 13.8153 44.785 16.4792 49.3575 20.7717 48.0656 22.4986 47.2701 22.7451 45.3315 23.535 43.9895 24.3738 43.2441 17.762 42.5481 10.8055 39.9635 10.8055 28.4315 10.8055 25.1509 11.9889 22.4669 13.8641 20.3795 13.5682 19.6341 12.5318 16.5517 14.1605 12.4263 14.1605 12.4263 16.6768 11.6309 22.3504 15.508 24.7795 14.8509 27.2845 14.5165 29.8009 14.5137 32.3172 14.5137 34.8822 14.862 37.2509 15.508 42.9251 11.6309 45.4413 12.4263 45.4413 12.4263 47.07 16.5517 46.033 19.6341 45.7372 20.3795 47.6617 22.4669 48.7963 25.1509 48.7963 28.4315 48.7963 39.9635 41.8399 42.4981 35.1787 43.2441 36.2645 44.1884 37.2015 45.9775 37.2015 48.811 37.2015 52.837 37.1527 56.0682 37.1527 57.0618 37.1527 57.8573 37.6956 58.8022 39.1754 58.5039 51.0167 54.5267 59.5525 43.2935 59.5525 30.0224 59.6013 13.42 46.2307 0 29.8009 0Z" fill="#C0C0C0" fill-rule="evenodd" transform="matrix(1 0 0 1.01639 430 248)"/></g></svg>