<svg width="61" height="61" xmlns="http://www.w3.org/2000/svg" xmlns:xlink="http://www.w3.org/1999/xlink" xml:space="preserve" overflow="hidden"><defs><clipPath id="clip0"><rect x="430" y="374" width="61" height="61"/></clipPath></defs><g clip-path="url(#clip0)" transform="translate(-430 -374)"><path d="M460.5 429.917C456.942 429.917 453.616 429.249 450.524 427.915 447.432 426.581 444.742 424.77 442.454 422.482 440.167 420.195 438.366 417.494 437.053 414.381 435.74 411.267 435.083 407.931 435.083 404.373 435.083 400.815 435.74 397.5 437.053 394.429 438.366 391.357 440.167 388.678 442.454 386.391 444.742 384.103 447.432 382.313 450.524 381.021 453.616 379.729 456.942 379.083 460.5 379.083 464.058 379.083 467.384 379.729 470.476 381.021 473.568 382.313 476.258 384.103 478.546 386.391 480.833 388.678 482.634 391.357 483.947 394.429 485.26 397.5 485.917 400.815 485.917 404.373 485.917 407.931 485.26 411.267 483.947 414.381 482.634 417.494 480.833 420.195 478.546 422.482 476.258 424.77 473.568 426.581 470.476 427.915 467.384 429.249 464.058 429.917 460.5 429.917ZM460.5 426.231C461.983 424.706 463.222 422.959 464.217 420.989 465.213 419.019 466.028 416.679 466.664 413.968L454.4 413.968C454.993 416.509 455.787 418.797 456.783 420.83 457.778 422.864 459.017 424.664 460.5 426.231ZM455.099 425.469C454.04 423.859 453.129 422.122 452.367 420.258 451.604 418.394 450.969 416.298 450.46 413.968L440.929 413.968C442.539 416.975 444.403 419.337 446.521 421.053 448.639 422.768 451.498 424.24 455.099 425.469ZM465.965 425.405C469.015 424.431 471.757 422.969 474.193 421.021 476.629 419.072 478.588 416.721 480.071 413.968L470.603 413.968C470.052 416.255 469.406 418.331 468.665 420.195 467.924 422.059 467.024 423.795 465.965 425.405ZM439.658 410.155 449.761 410.155C449.634 409.011 449.56 407.984 449.539 407.073 449.518 406.163 449.507 405.263 449.507 404.373 449.507 403.314 449.529 402.371 449.571 401.545 449.613 400.719 449.698 399.798 449.825 398.781L439.658 398.781C439.362 399.798 439.161 400.709 439.055 401.514 438.949 402.318 438.896 403.271 438.896 404.373 438.896 405.474 438.949 406.459 439.055 407.328 439.161 408.196 439.362 409.139 439.658 410.155ZM453.701 410.155 467.362 410.155C467.532 408.842 467.638 407.772 467.68 406.946 467.723 406.12 467.744 405.263 467.744 404.373 467.744 403.526 467.723 402.71 467.68 401.927 467.638 401.143 467.532 400.094 467.362 398.781L453.701 398.781C453.532 400.094 453.426 401.143 453.383 401.927 453.341 402.71 453.32 403.526 453.32 404.373 453.32 405.263 453.341 406.12 453.383 406.946 453.426 407.772 453.532 408.842 453.701 410.155ZM471.175 410.155 481.342 410.155C481.638 409.139 481.839 408.196 481.945 407.328 482.051 406.459 482.104 405.474 482.104 404.373 482.104 403.271 482.051 402.318 481.945 401.514 481.839 400.709 481.638 399.798 481.342 398.781L471.239 398.781C471.366 400.264 471.45 401.397 471.493 402.181 471.535 402.964 471.556 403.695 471.556 404.373 471.556 405.305 471.524 406.184 471.461 407.01 471.397 407.836 471.302 408.884 471.175 410.155ZM470.54 394.969 480.071 394.969C478.673 392.046 476.756 389.61 474.32 387.661 471.885 385.713 469.078 384.336 465.901 383.531 466.96 385.099 467.86 386.793 468.602 388.615 469.343 390.436 469.989 392.554 470.54 394.969ZM454.4 394.969 466.727 394.969C466.261 392.724 465.477 390.553 464.376 388.456 463.275 386.359 461.983 384.506 460.5 382.896 459.144 384.04 458.001 385.543 457.069 387.407 456.137 389.271 455.247 391.792 454.4 394.969ZM440.929 394.969 450.524 394.969C450.99 392.681 451.583 390.637 452.303 388.837 453.023 387.037 453.934 385.289 455.035 383.595 451.858 384.4 449.084 385.755 446.711 387.661 444.339 389.568 442.412 392.004 440.929 394.969Z" fill="#002060"/></g></svg>