<svg width="61" height="61" xmlns="http://www.w3.org/2000/svg" xmlns:xlink="http://www.w3.org/1999/xlink" xml:space="preserve" overflow="hidden"><defs><clipPath id="clip0"><rect x="430" y="322" width="61" height="61"/></clipPath></defs><g clip-path="url(#clip0)" transform="translate(-430 -322)"><path d="M470.633 351.876C465.04 348.887 459.685 346.139 454.211 343.27L454.211 360.433C459.971 357.301 466.043 354.434 470.657 351.876L470.633 351.876Z" fill="#FFFFFF"/><path d="M470.633 351.876C465.04 348.887 454.211 343.27 454.211 343.27L468.65 352.975C468.651 352.975 466.019 354.434 470.633 351.876Z" fill="#E8E0E0"/><path d="M455.264 373.868C443.646 373.654 439.679 373.461 437.24 372.959 435.59 372.625 434.156 371.884 433.104 370.809 432.292 369.995 431.646 368.753 431.144 367.031 430.714 365.596 430.547 364.402 430.308 361.485 429.942 354.903 429.855 349.522 430.308 343.509 430.681 340.189 430.862 336.247 433.343 333.947 434.514 332.871 435.877 332.178 437.407 331.892 439.797 331.438 449.981 331.079 460.523 331.079 471.041 331.079 481.247 331.438 483.639 331.892 485.551 332.251 487.343 333.326 488.396 334.712 490.659 338.273 490.699 342.7 490.929 346.163 491.024 347.813 491.024 357.183 490.929 358.833 490.571 364.306 490.284 366.242 489.471 368.25 488.969 369.517 488.54 370.186 487.797 370.927 486.633 372.068 485.148 372.827 483.542 373.103 473.489 373.858 464.952 374.023 455.264 373.868ZM470.658 351.876C465.065 348.887 459.71 346.115 454.236 343.246L454.236 360.41C459.996 357.279 466.069 354.41 470.682 351.852L470.658 351.876Z" fill="#CD201F"/></g></svg>