<?xml version="1.0" standalone="no"?>
<svg xmlns:xlink="http://www.w3.org/1999/xlink" id="wave" style="transform:rotate(0deg); transition: 0.3s" viewBox="0 0 1440 100" version="1.1" xmlns="http://www.w3.org/2000/svg"><defs><linearGradient id="sw-gradient-0" x1="0" x2="0" y1="1" y2="0"><stop stop-color="rgba(213, 88, 31, 0.5)" offset="0%"/><stop stop-color="rgba(68, 68, 68, 1)" offset="100%"/></linearGradient></defs><path style="transform:translate(0, 0px); opacity:1" fill="url(#sw-gradient-0)" d="M0,20L60,16.7C120,13,240,7,360,5C480,3,600,7,720,13.3C840,20,960,30,1080,31.7C1200,33,1320,27,1440,20C1560,13,1680,7,1800,16.7C1920,27,2040,53,2160,61.7C2280,70,2400,60,2520,61.7C2640,63,2760,77,2880,80C3000,83,3120,77,3240,71.7C3360,67,3480,63,3600,60C3720,57,3840,53,3960,55C4080,57,4200,63,4320,63.3C4440,63,4560,57,4680,48.3C4800,40,4920,30,5040,33.3C5160,37,5280,53,5400,63.3C5520,73,5640,77,5760,73.3C5880,70,6000,60,6120,50C6240,40,6360,30,6480,31.7C6600,33,6720,47,6840,51.7C6960,57,7080,53,7200,48.3C7320,43,7440,37,7560,35C7680,33,7800,37,7920,40C8040,43,8160,47,8280,43.3C8400,40,8520,30,8580,25L8640,20L8640,100L8580,100C8520,100,8400,100,8280,100C8160,100,8040,100,7920,100C7800,100,7680,100,7560,100C7440,100,7320,100,7200,100C7080,100,6960,100,6840,100C6720,100,6600,100,6480,100C6360,100,6240,100,6120,100C6000,100,5880,100,5760,100C5640,100,5520,100,5400,100C5280,100,5160,100,5040,100C4920,100,4800,100,4680,100C4560,100,4440,100,4320,100C4200,100,4080,100,3960,100C3840,100,3720,100,3600,100C3480,100,3360,100,3240,100C3120,100,3000,100,2880,100C2760,100,2640,100,2520,100C2400,100,2280,100,2160,100C2040,100,1920,100,1800,100C1680,100,1560,100,1440,100C1320,100,1200,100,1080,100C960,100,840,100,720,100C600,100,480,100,360,100C240,100,120,100,60,100L0,100Z"/></svg>